<?xml version="1.0" standalone="no"?>
<!DOCTYPE svg PUBLIC "-//W3C//DTD SVG 20010904//EN"
 "http://www.w3.org/TR/2001/REC-SVG-20010904/DTD/svg10.dtd">
<svg version="1.0" xmlns="http://www.w3.org/2000/svg"
 width="1596.000000pt" height="1598.000000pt" viewBox="0 0 1596.000000 1598.000000"
 preserveAspectRatio="xMidYMid meet">

<g transform="translate(0.000000,1598.000000) scale(0.100000,-0.100000)"
fill="#000000" stroke="none">
<path d="M15955 7990 c0 -4397 1 -6196 2 -3998 2 2199 2 5797 0 7995 -1 2199
-2 400 -2 -3997z"/>
<path d="M7733 15703 c-6 -28 -14 -38 -28 -38 -15 0 -19 6 -17 24 2 22 1 23
-20 9 -17 -11 -22 -23 -20 -44 6 -45 20 -74 37 -74 12 0 14 -7 9 -27 -10 -41
-13 -44 -34 -33 -28 15 -60 12 -60 -5 0 -8 6 -15 14 -15 16 0 29 -44 21 -71
-9 -27 -64 -54 -79 -39 -18 18 -36 114 -23 122 6 4 16 3 23 -2 27 -23 32 34 9
100 -8 24 -13 52 -9 62 9 30 -25 22 -38 -9 -6 -16 -10 -57 -9 -92 2 -64 -13
-121 -31 -121 -5 0 -18 21 -29 48 -35 82 -52 112 -66 112 -9 0 -13 -14 -13
-44 0 -24 -7 -76 -16 -115 -15 -67 -15 -76 0 -114 14 -36 14 -43 1 -64 -9 -13
-19 -23 -23 -23 -7 0 -43 106 -42 127 0 6 -5 13 -11 15 -7 2 -7 18 1 53 l11
49 -67 65 -66 66 5 -42 c6 -46 -7 -68 -17 -29 -3 13 -14 27 -23 30 -15 6 -16
5 -5 -5 15 -16 16 -83 2 -110 -16 -28 -45 -23 -75 13 -22 26 -25 37 -20 68 5
27 2 40 -9 50 -14 11 -16 2 -16 -89 0 -55 -3 -101 -6 -101 -3 0 -14 5 -26 11
-15 8 -18 17 -14 35 4 15 0 34 -12 52 -10 15 -22 35 -28 46 -15 29 -29 24 -32
-12 -3 -26 -6 -31 -16 -23 -10 8 -17 7 -26 -4 -9 -11 -16 -12 -25 -5 -10 8
-15 4 -20 -19 -4 -17 -14 -36 -23 -42 -15 -9 -14 -10 3 -4 35 11 38 11 54 -17
14 -25 14 -28 -3 -47 -22 -24 -36 -27 -36 -7 0 30 -24 28 -49 -3 l-26 -32 -24
25 c-27 29 -43 34 -35 11 4 -8 1 -15 -5 -15 -6 0 -11 5 -11 10 0 22 -17 8 -29
-25 -16 -44 -27 -44 -35 -2 -3 19 -13 42 -22 53 -14 18 -15 18 -4 -3 6 -12 9
-57 8 -99 -2 -74 -2 -76 -19 -56 -9 12 -20 43 -24 69 -11 80 -16 96 -28 84 -6
-6 -21 -11 -34 -11 -27 0 -32 -30 -8 -50 17 -14 21 -95 5 -105 -5 -3 -17 11
-27 32 l-17 38 -4 -38 c-2 -22 3 -48 11 -60 12 -19 12 -25 -6 -55 -13 -22 -26
-32 -37 -29 -15 4 -17 -4 -15 -57 1 -35 10 -76 20 -95 9 -19 20 -61 22 -93 5
-49 3 -58 -11 -58 -12 0 -16 10 -16 43 0 49 -11 70 -31 62 -25 -10 -42 37 -49
137 -6 97 -21 138 -39 109 -6 -10 -12 -2 -21 25 -15 48 -30 66 -30 36 0 -15
-8 -24 -25 -28 -14 -3 -25 -13 -25 -21 0 -8 5 -11 10 -8 11 7 14 -65 4 -102
-8 -27 -44 -32 -44 -5 0 9 -14 37 -31 62 -31 44 -31 44 -24 13 7 -34 -10 -48
-21 -18 -9 22 -30 19 -96 -17 -101 -54 -188 -170 -188 -253 0 -31 -9 -36 -34
-21 -11 8 -44 16 -72 18 l-51 5 7 -34 c10 -40 0 -42 -46 -7 -33 26 -35 26 -54
9 -12 -11 -22 -37 -26 -67 l-7 -49 -21 21 c-42 38 -52 25 -29 -37 3 -7 1 -13
-4 -13 -5 0 -15 6 -22 13 -11 10 -11 8 -2 -10 24 -47 -17 -76 -61 -43 -22 16
-28 17 -28 6 0 -8 -14 -17 -31 -21 -30 -7 -109 -69 -109 -85 0 -4 9 -10 19
-13 11 -2 33 -24 51 -48 28 -39 29 -44 13 -50 -21 -7 -56 16 -69 46 -11 24
-55 31 -93 15 -15 -6 -60 -44 -100 -85 -58 -58 -72 -78 -66 -94 5 -18 2 -21
-21 -21 -20 0 -38 -12 -63 -41 -20 -23 -46 -51 -57 -62 l-22 -21 30 -37 c35
-44 52 -129 26 -129 -9 0 -22 8 -29 17 -8 9 -34 29 -58 45 l-45 28 -13 -38
c-8 -20 -18 -51 -22 -68 -12 -48 -16 -51 -71 -57 -64 -8 -73 -13 -60 -37 6
-11 8 -37 4 -58 -4 -28 -2 -41 10 -51 24 -20 20 -31 -11 -31 -18 0 -35 10 -49
28 -12 15 -26 24 -30 19 -4 -4 9 -21 29 -38 21 -17 37 -40 37 -51 0 -17 -4
-19 -32 -14 -29 5 -35 2 -51 -25 -14 -25 -22 -30 -43 -26 -23 4 -25 2 -22 -27
3 -30 4 -31 51 -28 41 3 47 1 47 -16 0 -21 -23 -46 -33 -35 -4 3 -7 -4 -7 -16
0 -18 -4 -20 -24 -15 -21 5 -24 3 -19 -15 3 -11 2 -32 -1 -46 l-6 -25 -51 35
c-50 34 -99 46 -99 25 0 -6 7 -25 16 -42 19 -36 7 -56 -24 -39 -45 24 -43 -26
3 -89 19 -26 35 -55 35 -63 0 -25 -18 -29 -39 -8 -25 25 -52 33 -71 21 -15
-10 -13 -11 30 -13 20 -2 25 -7 25 -27 0 -23 -3 -25 -38 -22 -54 5 -81 -17
-122 -98 -19 -38 -45 -74 -57 -81 l-21 -11 22 -18 c21 -15 22 -19 10 -38 -8
-12 -21 -22 -31 -22 -12 0 -18 -10 -20 -32 -3 -29 1 -34 27 -44 22 -8 30 -17
30 -35 1 -14 11 -39 23 -56 32 -45 28 -53 -23 -53 -37 0 -47 4 -61 26 -11 16
-24 24 -38 22 -19 -3 -21 -9 -18 -56 2 -29 -1 -59 -8 -66 -8 -11 -5 -16 17
-24 15 -5 39 -18 52 -29 l24 -20 -57 -26 c-32 -15 -62 -27 -67 -27 -5 0 -7
-11 -3 -25 8 -32 -22 -47 -42 -20 -13 17 -14 17 -20 1 -6 -15 4 -59 22 -103 3
-6 -4 -14 -16 -18 -27 -9 -83 -124 -69 -142 6 -7 8 -26 4 -43 -5 -22 -3 -32 9
-36 9 -3 14 -9 11 -14 -2 -4 18 -19 45 -34 58 -32 65 -49 14 -35 -55 16 -87 8
-94 -21 -8 -30 2 -49 57 -106 61 -63 53 -100 -16 -76 -22 8 -32 7 -40 -2 -14
-17 -2 -56 18 -57 10 0 11 -2 4 -6 -7 -2 -13 -13 -13 -23 0 -37 -12 -50 -46
-50 -43 0 -37 -19 14 -48 l38 -21 -4 -64 c-4 -58 0 -72 31 -138 19 -41 45 -80
56 -87 24 -14 23 -42 -2 -70 -21 -23 -22 -43 -2 -36 11 5 15 -1 15 -25 0 -21
11 -43 33 -68 76 -86 87 -123 37 -123 -16 0 -30 -3 -29 -7 1 -17 73 -67 125
-88 l56 -23 -32 -7 -32 -7 30 -31 31 -31 41 23 c48 27 90 22 90 -9 0 -13 12
-25 36 -35 35 -14 44 -43 12 -37 -9 1 -27 -11 -41 -28 -22 -26 -24 -34 -16
-60 16 -45 35 -56 72 -42 38 14 46 8 22 -18 -10 -11 -15 -23 -12 -26 3 -4 45
6 93 20 47 15 88 25 90 23 3 -3 -11 -22 -31 -42 -19 -21 -35 -39 -35 -41 0
-13 90 0 149 21 64 23 72 24 103 11 18 -8 41 -17 51 -20 10 -3 16 -10 12 -15
-3 -6 -12 -8 -20 -4 -11 4 -17 -4 -21 -26 -4 -18 -15 -38 -25 -45 -10 -7 -32
-31 -48 -53 -28 -39 -28 -39 -7 -49 11 -5 37 -30 56 -57 l35 -47 18 25 c15 20
27 25 60 25 24 0 48 7 59 17 14 12 21 14 30 5 8 -8 7 -21 -7 -52 -10 -22 -16
-42 -14 -43 2 -2 34 -17 70 -35 36 -17 75 -40 87 -50 30 -27 129 -47 163 -33
31 11 44 4 27 -16 -6 -7 -7 -17 -3 -21 4 -4 12 1 19 12 29 49 44 61 57 49 10
-10 10 -16 1 -25 -16 -16 -15 -28 2 -28 7 0 19 -7 26 -15 7 -8 26 -15 42 -15
26 0 29 -2 18 -15 -11 -13 -7 -15 26 -15 22 1 50 7 64 15 39 22 44 18 21 -20
-25 -42 -7 -48 29 -10 29 31 38 31 51 1 11 -23 12 -23 56 -10 50 15 63 12 63
-15 0 -11 8 -28 18 -40 14 -17 36 -23 125 -33 66 -7 107 -16 107 -23 0 -21
-58 -90 -97 -113 -117 -71 -147 -92 -207 -145 -91 -82 -200 -213 -240 -289
-59 -113 -55 -267 10 -450 36 -100 92 -208 107 -207 6 0 62 10 122 23 126 27
122 23 182 171 l32 80 49 5 c57 6 91 26 129 77 88 121 118 143 191 143 73 0
113 -19 187 -91 l64 -62 53 7 c29 4 82 10 118 13 61 5 67 8 107 52 160 172
233 381 203 577 -12 77 -12 89 8 156 12 40 22 84 24 97 2 19 13 28 48 39 130
40 210 77 264 120 36 28 61 41 64 34 3 -9 11 -8 32 3 16 8 54 15 84 15 78 0
91 17 98 135 l3 40 25 -42 26 -42 32 33 c18 18 32 39 33 47 0 8 6 1 14 -16
l13 -29 21 34 c11 19 21 40 21 46 0 14 29 39 36 31 10 -9 -86 -222 -141 -314
l-52 -88 28 -17 c16 -10 29 -23 29 -29 0 -6 -15 -29 -34 -52 -58 -71 -129
-193 -240 -414 -112 -221 -232 -413 -311 -498 -47 -49 -48 -54 -30 -111 5 -17
0 -23 -27 -34 -56 -23 -109 -64 -218 -172 -157 -154 -204 -173 -395 -154 -97
10 -101 5 -76 -81 27 -90 52 -123 94 -123 39 1 69 17 97 53 34 42 67 54 175
60 128 8 207 28 325 84 83 39 107 57 185 137 73 75 100 111 143 194 31 60 59
102 68 102 8 0 37 22 63 48 37 37 46 52 41 67 -9 26 -3 44 30 80 37 40 50 68
50 104 0 20 17 52 53 101 116 154 202 369 248 625 19 103 31 141 56 185 19 30
47 89 65 132 30 73 33 77 69 83 57 10 150 58 191 100 31 32 55 78 74 143 5 19
22 14 46 -13 12 -14 25 -25 28 -25 4 0 17 22 30 49 12 27 46 73 76 102 l52 52
37 -58 c41 -64 90 -165 99 -207 6 -24 0 -32 -41 -63 -27 -19 -122 -64 -213
-100 -91 -37 -186 -80 -212 -96 -81 -52 -126 -126 -135 -223 l-6 -64 43 -28
c41 -27 50 -29 144 -28 89 0 115 5 216 38 130 43 250 59 250 34 0 -54 -69
-169 -160 -267 -47 -51 -96 -119 -109 -153 -6 -15 -33 -36 -75 -58 -37 -18
-115 -73 -173 -122 -118 -99 -173 -134 -248 -160 l-50 -17 -6 -73 c-6 -72 -21
-114 -62 -172 -16 -23 -17 -30 -6 -37 8 -5 17 -9 21 -9 4 0 15 -14 25 -31 18
-31 18 -31 88 -27 102 7 150 32 262 141 125 120 128 122 198 102 l55 -16 0
-78 0 -78 47 -18 c62 -24 120 -87 176 -193 67 -128 101 -171 154 -194 79 -35
154 -4 198 83 31 59 51 141 81 317 33 202 38 215 87 259 24 21 82 88 129 148
109 140 131 160 200 184 198 68 429 74 647 16 97 -26 254 -95 326 -143 70 -46
165 -133 207 -189 l40 -53 90 0 c103 0 110 4 154 97 47 99 41 205 -19 325 -43
86 -170 213 -259 259 -58 29 -66 37 -62 56 3 12 3 31 -1 43 -5 17 -12 20 -39
15 -32 -6 -116 19 -116 35 0 4 -17 19 -38 34 l-38 26 -88 -35 c-48 -20 -194
-87 -324 -149 -254 -122 -380 -173 -522 -210 -67 -18 -98 -32 -122 -56 -33
-31 -169 -101 -303 -156 -38 -15 -99 -48 -134 -72 l-65 -43 -42 31 c-53 38
-72 38 -76 3 -3 -24 -8 -28 -41 -31 -51 -4 -63 8 -70 71 -4 28 -8 59 -9 68 -2
9 40 68 93 130 53 63 134 159 179 214 46 55 117 135 158 177 76 78 102 124
102 185 0 48 85 100 262 158 174 58 181 61 247 123 56 53 86 65 269 113 45 12
97 31 115 43 38 25 67 78 67 123 0 30 -5 35 -67 67 -61 30 -113 71 -102 79 2
1 24 16 49 32 161 105 312 260 372 383 36 72 42 93 46 166 3 62 0 99 -13 139
-17 54 -17 54 -64 60 -25 3 -85 24 -131 47 -76 37 -91 41 -140 37 -30 -3 -101
-21 -157 -40 -117 -41 -184 -50 -188 -27 -1 8 -10 50 -19 94 -16 79 -21 173
-10 213 7 26 27 33 190 67 160 33 263 67 322 105 99 63 101 81 20 162 -38 38
-82 65 -183 114 -179 87 -177 86 -212 36 -30 -43 -81 -75 -106 -65 -8 3 -24
27 -36 53 -22 52 -34 65 -69 76 -22 6 -23 5 -17 -28 4 -22 1 -56 -9 -89 l-15
-53 -98 -39 c-103 -40 -150 -63 -513 -248 -124 -63 -270 -130 -325 -150 -109
-39 -252 -74 -262 -64 -10 10 35 52 75 69 20 9 84 28 141 42 131 33 158 47
282 148 215 175 283 218 370 232 34 6 43 13 61 48 56 112 140 201 229 246 34
17 68 31 75 31 7 0 27 21 45 46 17 25 79 97 138 158 126 133 161 192 169 282
4 53 8 64 23 64 9 0 31 8 48 18 28 15 31 22 31 67 0 28 7 105 16 170 25 186 6
341 -44 360 -30 11 -236 26 -277 19 -22 -3 -74 -27 -115 -53 -41 -26 -124 -73
-183 -105 l-109 -57 -51 41 c-86 68 -160 117 -243 159 -81 41 -254 105 -262
96 -3 -2 1 -26 9 -52 19 -67 16 -187 -7 -248 -11 -27 -36 -83 -58 -122 l-38
-73 -55 0 c-30 0 -67 -7 -83 -15 l-30 -15 6 27 c3 18 -4 47 -20 84 -26 56 -26
56 -99 78 -39 12 -112 27 -160 34 -163 21 -315 -28 -411 -134 -43 -48 -58 -58
-96 -64 -25 -4 -106 -27 -180 -52 -101 -34 -156 -47 -217 -51 -69 -4 -83 -8
-83 -22 0 -33 31 -107 60 -142 27 -33 34 -36 102 -42 70 -6 114 -22 211 -77
104 -59 334 -22 439 70 20 17 39 31 43 31 12 0 -3 -196 -20 -268 -8 -34 -26
-84 -39 -110 l-25 -47 -1 138 c0 75 -4 137 -8 137 -4 0 -23 -15 -40 -33 -40
-41 -49 -90 -32 -154 13 -45 13 -47 -10 -62 -14 -9 -51 -38 -83 -66 -113 -96
-169 -135 -191 -135 -30 0 -54 28 -62 71 -14 70 -27 77 -204 99 -91 12 -161
39 -237 92 -64 44 -87 56 -123 62 -19 3 -30 0 -30 -8 0 -55 271 -640 333 -716
30 -39 86 -69 140 -76 40 -6 46 -4 63 21 27 41 90 105 102 105 5 0 24 -22 42
-50 48 -74 79 -96 158 -110 190 -34 360 86 496 350 70 134 112 252 141 395 30
143 54 206 91 230 23 15 25 14 43 -16 11 -18 22 -55 26 -83 4 -28 9 -59 11
-68 7 -24 65 -38 154 -37 l75 0 47 56 c26 30 76 96 110 146 195 281 291 391
399 460 71 45 151 79 160 70 5 -5 13 -40 18 -78 11 -78 0 -188 -24 -234 -13
-25 -20 -29 -79 -33 -80 -7 -121 -30 -229 -127 -44 -39 -88 -73 -99 -77 -18
-5 -19 -11 -13 -48 4 -22 9 -56 12 -73 6 -41 -35 -134 -106 -236 -105 -151
-222 -253 -507 -441 -104 -68 -224 -150 -268 -181 -48 -35 -103 -64 -141 -76
-76 -23 -148 -75 -229 -166 -69 -75 -155 -135 -218 -151 -24 -6 -89 -18 -145
-26 -57 -9 -120 -24 -142 -35 -36 -19 -39 -24 -51 -87 -17 -89 -8 -190 27
-294 28 -85 28 -85 61 -83 45 2 111 37 221 118 51 37 114 76 142 86 53 21 133
25 173 9 l25 -9 -23 -53 c-13 -29 -45 -116 -71 -193 -43 -128 -51 -144 -93
-182 -25 -23 -57 -46 -71 -51 -14 -6 -73 -28 -132 -51 -108 -41 -221 -64 -379
-76 -170 -12 -296 -27 -358 -41 -35 -8 -68 -11 -74 -8 -11 7 -1 154 14 193 7
19 5 27 -7 34 -9 5 -25 28 -35 52 -24 56 -50 71 -89 50 -42 -21 -78 -19 -91 5
-13 25 0 64 83 245 83 182 107 274 107 407 0 77 -6 87 -93 139 -71 43 -81 74
-81 239 0 158 9 189 125 452 81 186 118 304 126 410 l6 76 -41 21 c-22 11 -76
34 -119 51 -43 17 -85 38 -93 46 -26 25 -19 224 13 377 15 71 27 157 27 192
l0 64 -42 12 c-24 7 -88 12 -143 12 -80 -1 -117 -6 -181 -27 -84 -27 -209 -96
-300 -167 -46 -35 -62 -42 -110 -45 -74 -4 -152 -43 -202 -99 -35 -39 -158
-256 -205 -359 -34 -74 -39 -163 -26 -481 10 -260 10 -357 -6 -735 -19 -454
-17 -887 5 -1064 6 -49 9 -90 7 -93 -10 -9 -171 60 -239 104 -24 15 -102 59
-175 99 -168 92 -260 155 -349 237 -64 60 -174 201 -174 225 0 5 -21 13 -46
17 -31 4 -57 17 -82 39 -20 19 -53 43 -72 55 -19 11 -29 21 -22 21 9 0 10 4 0
19 -12 20 -13 18 38 89 22 29 12 37 -42 36 -24 0 -44 3 -44 8 0 4 20 18 45 30
41 20 58 38 37 38 -15 0 -52 37 -45 44 3 3 26 6 49 6 31 0 51 7 71 24 l27 24
-19 98 c-24 122 -24 245 -2 298 18 40 15 56 -9 56 -8 0 -14 5 -14 10 0 6 6 10
13 9 33 -4 38 1 23 23 -9 12 -16 28 -16 35 0 19 27 16 40 -4 9 -17 11 -16 29
4 11 13 22 45 26 72 4 29 15 57 26 67 10 9 19 28 19 41 0 12 16 40 35 62 19
21 35 46 35 55 0 9 8 16 19 16 26 0 48 27 33 42 -23 23 -13 54 28 87 22 17 40
39 40 47 0 8 5 20 10 27 19 23 172 282 205 347 18 36 39 84 46 108 16 55 54
92 140 137 100 53 127 94 93 143 -22 31 -7 43 15 13 l18 -24 7 26 c4 19 23 34
73 59 38 19 67 38 67 44 -1 5 -5 19 -9 32 -5 16 -2 22 10 22 31 0 74 30 106
75 19 27 46 50 66 57 l33 12 -20 21 c-27 29 -25 46 11 81 l31 29 18 -23 19
-23 38 30 c21 16 55 33 76 36 31 6 37 11 38 34 2 69 10 79 50 64 28 -11 33 -9
61 18 17 16 35 29 39 29 4 0 1 12 -7 28 -20 40 -18 89 5 102 28 14 26 15 50
-41 l22 -50 36 31 c20 18 78 52 130 76 108 50 162 89 194 141 l22 35 17 -23
18 -23 40 35 c22 19 84 56 139 83 69 35 115 67 155 107 l57 56 48 -8 c78 -12
100 -3 133 54 15 27 31 65 35 83 7 41 17 43 44 6 14 -20 34 -32 71 -40 77 -18
96 -15 119 16 16 21 20 23 21 10 0 -27 8 -23 54 28 42 47 77 59 116 41 20 -10
65 82 55 112 -10 31 2 25 20 -10 10 -19 14 -41 10 -60 -6 -26 -4 -29 20 -29
49 0 170 22 260 47 l89 24 19 -25 c17 -23 25 -26 82 -26 35 0 66 -4 69 -9 8
-12 143 -13 151 -1 10 17 25 11 25 -9 0 -12 12 -24 33 -32 17 -7 55 -35 84
-62 l52 -49 47 26 c43 24 46 25 41 6 -7 -29 4 -25 75 24 l64 43 17 -29 c19
-33 15 -48 -12 -48 -18 0 -108 -44 -126 -61 -16 -15 14 -28 51 -22 35 6 36 5
49 -51 5 -26 9 -28 40 -23 35 6 49 -8 20 -19 -12 -5 -13 -10 -4 -20 15 -18 45
-18 53 1 3 8 13 15 22 15 29 0 -3 -28 -70 -59 l-61 -30 0 -93 c0 -92 0 -93 25
-96 23 -2 24 -1 8 11 -22 18 -23 31 -2 23 9 -3 43 6 76 21 48 21 65 24 86 17
16 -6 26 -17 26 -27 -1 -10 3 -14 10 -9 6 4 54 7 106 8 82 1 112 7 220 42 147
47 213 62 280 62 44 0 51 4 79 37 61 74 80 191 38 231 -71 67 -288 121 -489
122 l-57 0 -58 -66 c-56 -63 -58 -65 -73 -46 -27 33 -55 36 -68 7 -11 -23 -16
-25 -49 -19 -50 9 -53 11 -53 39 0 14 7 26 18 29 9 3 23 15 30 26 10 17 10 20
-5 20 -15 1 -14 4 6 20 l23 20 -25 0 c-18 0 -31 10 -47 35 -12 19 -19 39 -15
45 3 5 1 10 -5 10 -6 0 -16 -11 -22 -25 -13 -28 -35 -28 -30 0 2 10 14 35 28
56 43 69 39 79 -43 104 -86 27 -120 47 -136 82 -11 24 -14 25 -73 20 -35 -3
-79 -13 -99 -21 -32 -14 -36 -14 -42 0 -3 8 -1 26 5 40 8 16 8 24 1 24 -10 0
-7 31 7 81 4 13 -2 16 -23 15 -37 -2 -53 -13 -53 -35 0 -18 -4 -17 -57 5 -33
13 -79 24 -107 24 -42 0 -47 2 -41 18 5 9 10 32 13 50 l4 33 -45 -31 c-28 -21
-61 -34 -90 -37 l-46 -5 5 -62 c4 -45 2 -66 -9 -81 -9 -11 -18 -17 -21 -14 -3
3 -8 37 -12 77 -5 50 -13 77 -26 92 -11 12 -18 30 -15 40 3 10 -1 21 -8 24 -7
2 -21 28 -30 56 -13 40 -14 54 -5 65 10 12 9 15 -6 15 -11 0 -28 -7 -38 -15
-31 -24 -48 -19 -44 12 2 19 10 29 23 31 73 11 76 15 49 82 -21 53 -49 54 -61
3z m1182 -1053 c-3 -5 -10 -10 -16 -10 -5 0 -9 5 -9 10 0 6 7 10 16 10 8 0 12
-4 9 -10z m-2535 -1285 c6 -31 29 -98 51 -149 30 -74 39 -107 39 -153 0 -83
-8 -103 -37 -103 -44 0 -78 -27 -118 -95 -32 -55 -47 -71 -89 -92 -28 -14 -94
-58 -147 -98 -112 -85 -192 -130 -249 -140 -47 -8 -51 -25 -17 -75 40 -60 124
-92 276 -104 l73 -6 42 43 c22 23 56 59 74 80 60 66 112 46 112 -43 0 -33 -7
-48 -38 -83 -82 -91 -95 -113 -95 -173 0 -54 -2 -57 -52 -108 -34 -34 -65 -79
-86 -124 -28 -59 -39 -74 -65 -82 -108 -36 -149 -160 -93 -280 28 -59 75 -112
124 -137 26 -14 41 -15 117 -4 48 7 96 10 107 6 20 -6 20 -7 1 -58 -10 -29
-35 -104 -54 -167 -20 -63 -49 -139 -66 -168 -30 -50 -99 -112 -127 -112 -7 0
-13 -10 -13 -23 0 -13 -7 -44 -16 -70 -12 -34 -21 -47 -35 -47 -29 0 -90 -34
-120 -67 -48 -52 -59 -76 -59 -126 0 -41 -3 -48 -16 -43 -9 3 -22 6 -29 6 -8
0 -17 27 -25 83 -16 117 -44 236 -81 352 -29 90 -32 116 -38 267 -6 156 -7
168 -28 188 -34 31 -30 94 13 215 44 127 50 196 34 409 -11 152 -11 183 4 281
48 310 57 495 34 668 l-12 90 54 49 c174 154 382 246 562 247 l77 1 11 -55z
m1402 -950 c10 -10 -23 -130 -39 -142 -19 -15 -63 -17 -63 -5 0 5 9 17 21 28
22 20 19 56 -8 86 -8 9 -12 22 -8 27 6 11 87 16 97 6z m1594 -780 l7 -110 -37
-13 c-19 -7 -73 -43 -118 -79 -101 -80 -148 -102 -214 -103 -80 0 -139 25
-203 89 -49 48 -101 130 -101 160 0 5 29 12 66 16 99 10 178 36 335 110 79 38
166 76 193 86 l51 18 8 -32 c4 -18 10 -81 13 -142z m-871 -207 c19 -62 33
-278 18 -278 -5 0 -18 10 -29 21 -19 21 -112 79 -126 79 -5 0 -8 -12 -8 -26 0
-77 -55 -162 -139 -216 -83 -52 -93 -40 -66 86 27 130 89 258 152 318 36 35
109 67 150 68 30 0 33 -3 48 -52z m1363 -106 c11 -25 9 -34 -28 -109 -64 -130
-110 -173 -185 -173 -36 0 -36 1 -30 33 10 50 36 129 55 167 48 94 159 143
188 82z m-665 -304 c-8 -66 -51 -188 -85 -240 -51 -81 -117 -128 -203 -144
-32 -6 -35 -4 -35 17 0 44 30 149 56 201 34 67 115 146 184 180 79 39 89 37
83 -14z m-2694 -1232 c15 -18 5 -40 -25 -56 -17 -9 -23 -19 -18 -29 24 -56 4
-136 -42 -166 -43 -28 -54 -20 -54 39 0 41 7 66 30 107 17 30 37 69 45 87 16
34 44 42 64 18z"/>
<path d="M7905 15690 c-3 -5 -3 -15 1 -21 6 -11 23 6 24 24 0 10 -18 9 -25 -3z"/>
<path d="M7296 15645 c-22 -17 -17 -29 8 -19 9 3 16 12 16 20 0 17 0 17 -24
-1z"/>
<path d="M7990 15605 c-25 -13 -53 -24 -62 -25 -14 0 -18 -9 -18 -44 0 -26 -6
-48 -15 -56 -17 -14 -11 -30 11 -30 9 0 14 11 14 31 0 21 10 40 30 61 27 27
36 30 73 25 23 -3 47 -13 53 -22 11 -15 13 -15 24 4 9 18 7 23 -15 33 -14 6
-25 19 -25 30 0 24 -15 22 -70 -7z"/>
<path d="M7860 15586 c0 -2 7 -9 15 -16 12 -10 15 -10 15 4 0 9 -7 16 -15 16
-8 0 -15 -2 -15 -4z"/>
<path d="M7060 15551 c0 -12 5 -21 10 -21 6 0 10 6 10 14 0 8 -4 18 -10 21 -5
3 -10 -3 -10 -14z"/>
<path d="M8361 15537 c-14 -35 -14 -56 0 -96 10 -29 29 -43 29 -21 0 6 10 15
23 20 15 6 17 9 6 9 -9 1 -20 13 -23 27 -5 17 -12 24 -21 20 -18 -6 -19 -1 -4
25 6 11 8 25 6 32 -3 7 -10 -1 -16 -16z"/>
<path d="M8202 15493 c-48 -23 -31 -28 20 -5 23 11 36 21 28 21 -8 0 -30 -7
-48 -16z"/>
<path d="M8430 15390 c-8 -5 -11 -12 -8 -16 4 -3 14 1 23 10 18 17 9 21 -15 6z"/>
<path d="M6347 15193 c-4 -3 -7 -13 -7 -21 0 -12 3 -12 15 -2 8 7 15 16 15 21
0 11 -14 12 -23 2z"/>
<path d="M7950 14389 c-13 -5 -32 -17 -42 -26 -10 -9 -55 -21 -104 -28 -112
-17 -184 -53 -306 -157 l-98 -82 63 -16 c34 -9 114 -35 177 -58 241 -86 381
-117 491 -110 131 10 199 79 220 223 5 37 7 76 4 85 -8 27 -117 107 -190 142
-72 33 -171 46 -215 27z"/>
<path d="M8836 14218 c-29 -93 -46 -161 -46 -182 0 -21 5 -26 26 -26 15 0 44
5 65 12 l39 11 0 79 c0 44 -5 88 -10 99 -12 22 -68 27 -74 7z"/>
<path d="M4430 13730 c-10 -6 -11 -13 -5 -19 6 -6 16 -7 25 -1 10 6 11 13 5
19 -6 6 -16 7 -25 1z"/>
<path d="M3920 12820 c0 -5 5 -10 11 -10 5 0 7 5 4 10 -3 6 -8 10 -11 10 -2 0
-4 -4 -4 -10z"/>
<path d="M4914 9244 c-139 -83 -253 -194 -301 -291 -39 -81 -40 -174 0 -254
33 -69 117 -156 198 -209 85 -55 120 -65 158 -46 39 21 50 60 58 206 5 106 4
121 -20 193 -39 114 -53 230 -39 325 6 42 14 85 17 95 10 25 -4 21 -71 -19z"/>
<path d="M10548 8430 c-250 -39 -467 -237 -535 -490 -17 -61 -18 -176 -18
-1810 0 -1379 3 -1757 13 -1800 7 -30 33 -96 58 -146 77 -157 207 -271 375
-330 l84 -29 408 -3 c384 -3 413 -2 490 17 195 49 345 169 431 343 82 165 77
23 74 1981 -3 1669 -4 1744 -22 1797 -74 221 -228 376 -441 447 l-80 27 -390
2 c-214 1 -415 -2 -447 -6z m94 -607 c44 -25 57 -67 57 -184 l1 -96 38 -7 c57
-9 92 -40 92 -81 0 -40 -6 -44 -74 -59 l-51 -11 -2 -98 c-1 -109 -7 -104 75
-71 17 7 32 9 32 5 0 -4 -22 -37 -49 -73 l-49 -65 -4 -239 c-3 -203 -6 -245
-22 -281 -47 -109 -135 -92 -221 43 -32 49 -85 148 -85 157 0 2 21 -6 48 -19
26 -13 64 -24 85 -24 l37 0 0 123 0 123 -67 -4 c-59 -3 -73 0 -103 20 -34 23
-69 77 -70 109 0 13 7 14 50 5 41 -8 61 -6 117 10 l68 19 3 118 3 117 -43 0
c-59 1 -117 15 -146 37 -36 27 -29 36 25 38 27 2 74 13 106 25 l59 22 -4 132
c-3 121 -5 135 -30 180 -16 27 -28 51 -28 54 0 12 123 -8 152 -25z m540 -39
c64 -21 102 -66 94 -112 -6 -40 -48 -98 -76 -107 -23 -7 -50 10 -50 32 0 39
-110 183 -141 183 -16 0 -10 18 9 24 26 7 111 -3 164 -20z m297 -278 c29 -27
28 -81 -1 -100 -27 -17 -263 -46 -372 -46 -105 0 -256 34 -256 58 0 5 42 16
93 27 50 10 103 22 117 28 14 5 66 20 115 33 116 30 270 30 304 0z m-89 -202
c39 -24 55 -66 52 -137 -5 -122 -43 -232 -113 -323 l-50 -64 78 1 c95 2 155
-15 199 -57 37 -34 42 -59 20 -89 -11 -15 -24 -19 -57 -17 -24 1 -179 3 -344
5 -258 2 -307 4 -351 20 -29 10 -60 27 -69 37 -18 20 -17 20 43 20 33 0 116
13 184 29 68 17 143 34 167 38 43 8 45 10 63 63 64 185 95 410 64 470 l-16 33
50 -6 c28 -3 64 -14 80 -23z m-424 -63 c53 -38 76 -65 118 -135 43 -72 62
-152 47 -199 -16 -46 -63 -90 -92 -85 -23 3 -25 10 -37 108 -11 98 -27 153
-81 288 -25 62 -15 67 45 23z m-346 -1399 c41 -20 62 -56 56 -93 -5 -26 -5
-26 74 -31 84 -5 113 -19 123 -59 10 -38 -23 -56 -117 -64 l-86 -7 0 -126 0
-127 20 32 c11 18 27 55 36 83 15 47 15 55 1 90 l-15 40 41 -6 c60 -10 96 -30
103 -61 6 -24 3 -39 -20 -93 -4 -11 6 -21 36 -35 38 -19 43 -25 46 -59 3 -29
-2 -44 -19 -62 -12 -13 -28 -24 -34 -24 -6 0 -23 25 -38 55 l-27 56 -33 -25
c-18 -14 -50 -32 -70 -41 -20 -8 -37 -19 -37 -23 0 -4 23 -8 51 -10 134 -8
200 -83 154 -172 -24 -46 -53 -39 -109 26 -27 30 -68 68 -93 83 l-44 28 -53
-51 -52 -51 27 -17 c22 -13 53 -50 64 -75 0 -1 19 4 40 12 86 30 162 12 186
-46 18 -44 13 -85 -17 -138 -13 -24 -21 -48 -17 -51 13 -11 330 -99 433 -119
85 -17 162 -28 343 -46 l57 -6 -17 -30 c-30 -51 -94 -111 -140 -131 -35 -15
-55 -18 -106 -12 -82 9 -267 70 -408 137 -63 29 -145 66 -182 82 l-68 28 -37
-34 c-100 -94 -246 -170 -326 -169 l-31 1 50 42 c76 64 175 159 196 189 l19
26 -60 20 -59 20 -53 -28 c-52 -28 -128 -47 -128 -32 1 4 14 23 31 42 l30 35
-32 5 -32 5 27 32 c16 19 41 34 64 40 33 7 41 15 70 72 29 59 42 121 25 121
-5 0 -30 -7 -57 -15 -56 -17 -96 -19 -96 -6 0 5 8 12 18 15 20 7 136 118 159
153 12 18 12 26 -1 57 -17 41 -26 44 -44 16 -18 -29 -83 -67 -128 -76 l-39 -7
28 37 c50 65 81 145 81 211 1 33 -3 68 -8 79 -8 16 -6 18 25 11 19 -4 50 -14
69 -23 l35 -17 -2 -67 c-1 -38 2 -68 6 -68 5 0 16 -3 25 -6 14 -5 16 7 16 93
l0 100 -77 6 c-85 7 -165 27 -170 42 -2 6 50 21 114 33 64 13 120 25 125 28
13 8 8 85 -7 129 -8 22 -15 41 -15 43 0 9 72 -1 100 -16z m915 -116 c40 -17
69 -57 61 -84 -11 -33 -51 -43 -141 -36 -98 8 -183 -2 -166 -19 16 -16 13 -69
-5 -96 -16 -22 -16 -23 2 -17 11 3 51 10 89 16 104 16 178 -10 213 -77 16 -29
16 -526 1 -574 -22 -68 -74 -87 -118 -45 -25 24 -31 25 -208 28 -181 3 -182 3
-188 -19 -11 -46 -103 -41 -116 7 -4 14 -5 147 -2 296 6 265 6 273 -15 313
-12 23 -22 43 -22 45 0 8 86 -7 119 -20 57 -24 78 -18 101 25 10 22 22 57 26
79 l6 39 -89 5 c-75 3 -97 8 -137 32 -26 15 -46 30 -43 32 3 3 36 7 74 9 38 2
109 13 158 25 206 51 335 63 400 36z"/>
<path d="M10640 4925 c-14 -8 -36 -14 -49 -15 -21 0 -50 -24 -51 -42 0 -3 23
-11 52 -18 49 -10 53 -9 70 12 17 23 25 78 11 78 -5 -1 -19 -7 -33 -15z"/>
<path d="M11415 5157 l0 -222 23 -3 22 -3 0 213 c0 212 -4 238 -34 238 -8 0
-11 -74 -11 -223z"/>
<path d="M11088 5130 l-3 -240 28 0 27 0 0 221 c0 219 -5 259 -35 259 -12 0
-15 -40 -17 -240z"/>
<path d="M11257 5363 c-11 -3 -16 -10 -13 -20 3 -8 6 -30 6 -48 0 -33 0 -33
30 -22 32 12 39 41 20 78 -11 20 -12 20 -43 12z"/>
<path d="M11248 5135 c-4 -32 -2 -34 17 -29 31 10 44 23 42 45 -1 14 -9 19
-28 19 -23 0 -27 -5 -31 -35z"/>
<path d="M11247 5003 c-10 -9 -9 -83 1 -83 39 1 52 14 52 51 0 34 -3 39 -23
39 -13 0 -27 -3 -30 -7z"/>
<path d="M8445 7736 c-58 -14 -90 -30 -206 -101 -178 -110 -254 -138 -458
-171 -103 -16 -115 -20 -134 -46 -33 -45 -67 -62 -123 -63 -40 -1 -62 -8 -95
-30 l-44 -30 -175 0 c-174 0 -175 0 -227 29 -35 19 -61 27 -78 24 -40 -8 -99
8 -152 42 -76 49 -83 44 -83 -52 0 -52 -5 -93 -14 -110 -14 -27 -14 -28 47
-71 160 -113 285 -169 428 -190 75 -11 79 -10 126 15 54 30 145 48 241 48 49
0 73 6 105 24 67 38 174 60 270 53 110 -7 117 -10 117 -58 0 -61 -31 -109
-104 -162 -75 -55 -86 -71 -86 -120 0 -34 -4 -37 -102 -95 -202 -117 -243
-132 -373 -132 -122 -1 -168 -11 -208 -47 -21 -18 -57 -36 -88 -43 -48 -12
-66 -24 -159 -115 -58 -55 -119 -107 -136 -114 -31 -12 -32 -14 -31 -74 2 -71
-15 -104 -66 -132 -30 -16 -33 -21 -34 -69 0 -34 -13 -83 -38 -146 -29 -73
-39 -113 -43 -175 -4 -69 -9 -87 -36 -130 -49 -76 -68 -132 -74 -222 l-5 -83
-33 -12 c-19 -7 -34 -14 -34 -18 0 -3 9 -18 20 -35 26 -40 25 -58 -7 -107 -23
-35 -29 -55 -32 -120 -3 -71 -6 -81 -26 -90 -32 -14 -43 -45 -55 -150 -9 -75
-17 -104 -45 -154 -28 -50 -35 -73 -35 -117 0 -37 -5 -59 -16 -68 -24 -20 -60
-98 -100 -216 -49 -143 -84 -212 -133 -256 -23 -20 -45 -37 -50 -37 -4 0 -11
-25 -14 -56 -3 -31 -20 -85 -37 -122 -20 -41 -34 -90 -38 -127 -5 -54 -9 -64
-48 -101 -41 -41 -64 -76 -78 -121 -10 -33 27 -31 42 2 6 14 18 25 26 25 15 0
96 -61 93 -70 -1 -3 -33 -66 -72 -139 -45 -88 -88 -154 -121 -190 -45 -49 -50
-59 -42 -80 5 -14 7 -30 6 -36 -7 -25 -172 -165 -214 -181 -43 -16 -44 -18
-44 -63 0 -25 -9 -75 -20 -111 -44 -141 -46 -199 -8 -240 15 -16 17 -24 8 -35
-9 -10 -6 -23 10 -56 14 -26 20 -54 18 -76 -4 -31 -1 -34 31 -43 93 -26 169
-7 307 77 55 33 119 66 143 74 57 19 81 61 161 280 33 90 77 195 97 234 31 59
36 79 34 127 -3 69 10 118 56 217 40 85 63 160 63 208 l0 32 -72 3 c-58 2 -73
6 -71 18 3 32 65 225 84 261 19 39 20 39 79 39 l59 0 -6 -35 c-4 -27 -2 -35 9
-35 11 0 15 15 17 63 3 94 44 284 100 459 63 195 97 328 112 436 9 67 14 82
29 82 9 0 29 9 43 20 24 19 26 26 26 98 -1 49 5 93 16 122 9 25 28 81 41 125
42 138 65 193 94 218 30 27 45 77 55 190 5 46 11 67 20 67 19 0 28 35 27 109
-1 37 5 78 14 100 40 94 54 251 33 383 l-11 71 30 24 c43 33 64 96 60 174 l-3
64 54 28 c67 33 151 36 234 8 95 -33 208 -98 282 -161 95 -83 142 -109 214
-121 72 -11 154 -1 286 38 188 54 314 116 393 192 70 68 70 71 2 137 -33 31
-62 65 -65 74 -4 13 -22 18 -78 23 -109 8 -187 49 -230 119 -18 29 -18 30 18
78 80 108 169 178 507 390 140 88 270 217 323 322 l39 76 -38 56 c-45 65 -90
108 -146 136 -51 26 -80 26 -80 0 0 -26 -24 -26 -60 0 -68 48 -142 64 -215 46z"/>
<path d="M8465 5586 c-22 -7 -82 -41 -134 -74 -55 -36 -127 -72 -171 -87 -149
-50 -214 -57 -580 -65 -190 -4 -353 -10 -362 -14 -16 -7 -16 -11 -4 -34 21
-39 95 -107 143 -131 107 -54 281 -50 453 9 106 37 259 47 293 19 21 -16 20
-17 -39 -80 -164 -177 -360 -356 -590 -541 -232 -186 -395 -284 -510 -308 -37
-8 -55 -17 -59 -30 -12 -38 -63 -70 -111 -70 -45 0 -45 0 -70 -53 -40 -90 -65
-204 -71 -328 -7 -141 10 -214 62 -266 l33 -33 54 21 c32 13 64 18 81 15 30
-6 74 26 200 147 39 37 57 47 83 47 28 0 45 12 114 83 72 75 86 85 140 100 46
13 63 23 70 41 5 13 33 38 62 54 29 17 80 54 113 81 151 127 162 129 223 41
94 -138 136 -262 137 -405 0 -122 -22 -183 -89 -251 -40 -40 -67 -56 -120 -74
-62 -20 -79 -22 -190 -15 -107 6 -127 4 -174 -13 -28 -11 -52 -17 -52 -13 0
13 -49 31 -81 31 -16 0 -46 7 -65 15 -44 18 -51 14 -75 -39 -27 -59 -25 -139
5 -203 23 -48 28 -53 78 -67 29 -9 100 -23 158 -31 132 -20 174 -31 227 -60
34 -19 49 -22 75 -15 18 4 72 11 120 13 84 6 87 5 113 -21 51 -51 59 -78 58
-202 -1 -259 -69 -529 -141 -563 -15 -6 -54 -12 -87 -12 -45 0 -63 -4 -73 -17
-18 -24 -75 -38 -156 -38 -51 0 -92 -8 -160 -31 -133 -46 -153 -49 -229 -36
-60 10 -71 9 -98 -7 -41 -24 -158 -44 -311 -52 -117 -7 -131 -5 -178 15 -57
25 -71 24 -220 -11 -46 -11 -99 -18 -117 -16 -43 5 -42 -5 8 -82 37 -57 268
-309 296 -323 7 -3 26 -1 43 5 37 12 49 4 32 -23 -13 -20 -13 -20 56 -44 6 -2
12 -11 12 -20 0 -18 6 -18 107 -4 132 18 238 61 372 152 64 43 78 48 110 43
61 -9 159 18 277 79 75 38 131 60 176 67 61 11 67 14 75 42 10 36 37 45 63 21
18 -16 20 -15 41 34 14 35 28 53 43 55 153 29 153 29 284 109 81 49 82 50 103
31 16 -14 36 -19 83 -19 71 0 127 28 152 76 l15 29 27 -25 c39 -37 85 -48 172
-43 80 5 145 29 188 69 20 18 24 18 37 5 28 -28 85 -39 166 -33 74 6 84 4 241
-48 199 -65 344 -94 508 -102 l125 -6 31 44 c78 110 97 196 60 269 -102 197
-393 380 -630 397 -128 9 -167 0 -221 -53 -61 -59 -132 -93 -299 -144 -77 -23
-157 -51 -179 -61 -33 -17 -46 -19 -84 -11 -35 8 -58 7 -97 -5 -28 -8 -85 -17
-128 -20 -102 -7 -102 -6 -93 181 6 132 5 144 -15 190 l-22 49 21 71 c11 39
28 121 37 181 19 130 46 200 84 220 15 8 29 13 31 11 2 -2 20 -6 39 -10 32 -5
38 -3 52 22 9 15 28 34 41 41 21 11 29 11 48 -2 21 -15 24 -14 58 12 20 16 65
43 101 61 35 18 81 43 102 56 46 29 98 98 98 131 0 18 5 23 25 23 30 0 62 30
71 66 10 40 -21 91 -64 105 -45 15 -129 6 -178 -19 -34 -17 -42 -18 -60 -6
-18 12 -30 12 -87 -1 -59 -14 -71 -14 -102 -1 -33 14 -37 14 -71 -9 -53 -36
-92 -42 -110 -16 -8 11 -60 75 -115 142 -55 67 -118 149 -141 181 -53 78 -118
207 -118 233 0 12 19 39 45 63 48 44 56 62 28 62 -39 0 -186 -46 -293 -92
-286 -123 -361 -148 -487 -163 -71 -8 -77 -1 -44 50 34 54 64 81 190 171 68
49 131 95 140 101 10 7 31 14 48 15 22 2 43 18 82 60 54 59 109 92 175 104 27
5 53 20 80 46 62 60 145 117 326 223 195 115 271 168 359 251 65 61 66 62 51
90 -8 16 -49 63 -90 105 -107 107 -198 144 -285 115z"/>
<path d="M8810 4968 l-54 -31 24 -16 c84 -55 138 -130 176 -243 22 -66 29 -78
48 -78 12 0 74 -18 137 -40 138 -48 200 -53 225 -15 16 25 21 96 9 137 -4 13
-18 48 -32 79 -21 48 -30 58 -62 68 -21 6 -78 36 -127 67 -175 112 -248 127
-344 72z"/>
<path d="M12920 1013 c-14 -9 -28 -22 -32 -27 -14 -20 -8 -64 11 -87 28 -34
104 -34 132 0 19 23 25 67 11 87 -13 19 -56 44 -77 44 -11 0 -32 -8 -45 -17z
m74 -42 c28 -31 -2 -69 -44 -56 -29 9 -34 38 -10 57 28 22 33 22 54 -1z"/>
<path d="M7108 934 c-52 -27 -49 -102 3 -130 40 -20 93 -11 114 19 53 76 -32
158 -117 111z m76 -40 c9 -8 16 -19 16 -24 0 -11 -29 -40 -41 -40 -5 0 -18 9
-29 20 -28 28 -16 51 32 59 4 0 14 -6 22 -15z"/>
<path d="M9887 904 c-51 -35 -215 -93 -327 -115 l-65 -13 35 -14 c25 -10 60
-13 123 -9 l87 4 0 -57 0 -58 -102 -11 c-57 -6 -125 -15 -153 -20 l-50 -8 45
-21 c37 -18 64 -22 148 -22 56 0 102 -3 102 -8 0 -4 -9 -37 -19 -74 -23 -79
-81 -197 -123 -250 -36 -46 -20 -50 43 -10 83 53 141 147 174 283 l17 69 128
0 c107 0 129 3 134 16 21 54 -20 74 -154 74 l-100 0 0 25 c0 14 -6 41 -14 60
l-15 34 37 12 c20 7 47 18 59 26 31 20 70 125 46 122 -5 -1 -30 -16 -56 -35z"/>
<path d="M8753 894 c-1 -48 -71 -165 -154 -260 -38 -43 -69 -82 -69 -87 0 -10
67 19 111 48 20 13 60 50 89 83 l52 59 44 -8 c26 -5 66 -4 96 1 28 6 53 8 56
5 10 -9 -23 -73 -87 -170 -61 -94 -199 -245 -281 -309 l-35 -28 35 6 c133 23
324 204 430 408 47 90 50 119 14 147 -36 28 -69 27 -222 -5 -21 -4 -23 -2 -17
30 9 45 1 68 -33 93 l-28 21 -1 -34z"/>
<path d="M4815 897 c8 -29 -22 -101 -81 -199 -35 -57 -37 -59 -58 -44 -58 43
-166 87 -166 68 0 -4 13 -15 28 -24 32 -19 112 -102 112 -117 0 -20 -93 -131
-180 -215 -84 -81 -89 -87 -58 -81 75 17 177 88 261 183 16 17 33 32 38 32 5
0 23 -25 40 -55 17 -30 35 -55 40 -55 13 0 29 45 29 83 0 18 -11 49 -26 71
-24 35 -25 42 -13 60 39 62 100 174 106 195 7 30 -22 87 -55 109 -22 15 -23
14 -17 -11z"/>
<path d="M6830 903 c1 -4 7 -19 15 -33 8 -14 14 -52 15 -85 l0 -60 -93 -19
c-50 -10 -109 -21 -130 -24 -20 -2 -39 -8 -42 -12 -11 -18 70 -32 166 -28 54
2 100 0 101 -4 2 -4 2 -68 0 -143 -3 -152 -2 -151 -82 -119 -23 9 -43 14 -46
11 -7 -7 75 -105 108 -130 32 -24 72 -17 90 16 9 14 15 83 18 202 l5 180 105
0 c100 0 105 1 108 22 5 36 -38 56 -134 61 l-84 5 0 37 c0 57 -18 97 -48 108
-47 18 -72 24 -72 15z"/>
<path d="M12605 854 c-88 -14 -173 -29 -190 -33 l-30 -7 23 -13 c51 -28 223
-30 355 -6 35 7 37 6 37 -20 0 -69 -152 -328 -266 -454 -56 -61 -57 -64 -29
-57 104 25 248 184 346 381 60 119 70 170 42 204 -28 34 -95 35 -288 5z"/>
<path d="M2800 865 c-8 -2 -78 -11 -155 -21 -77 -9 -144 -21 -149 -25 -10 -8
47 -26 117 -35 25 -4 102 -3 172 1 97 5 128 10 132 22 12 31 -63 68 -117 58z"/>
<path d="M5300 832 c0 -5 12 -13 28 -17 36 -9 124 -76 190 -145 59 -62 72 -59
72 18 0 54 -26 80 -118 117 -72 29 -172 45 -172 27z"/>
<path d="M11598 702 c17 -20 40 -59 53 -85 13 -26 29 -47 36 -47 7 0 18 18 24
40 10 32 9 43 -2 56 -21 26 -100 74 -122 74 -16 0 -15 -5 11 -38z"/>
<path d="M11865 712 c10 -48 -19 -131 -75 -214 -58 -87 -120 -148 -218 -213
-40 -27 -71 -49 -70 -51 2 -1 27 2 57 8 124 22 236 110 315 245 77 130 81 187
16 233 l-32 23 7 -31z"/>
<path d="M10656 702 c-116 -15 -118 -15 -90 -31 20 -10 68 -16 157 -19 l127
-4 0 -54 0 -54 -47 -1 c-27 0 -95 -9 -153 -18 l-105 -18 40 -18 c32 -14 61
-17 150 -14 122 4 124 3 111 -66 -6 -32 -8 -33 -69 -40 -34 -3 -106 -13 -160
-22 -85 -14 -96 -19 -82 -30 28 -20 90 -24 243 -16 l143 8 4 185 c3 102 1 190
-3 196 -25 37 -76 40 -266 16z"/>
<path d="M2610 688 c-181 -25 -184 -26 -140 -47 29 -13 68 -16 213 -15 196 1
197 1 155 -59 -52 -76 -164 -202 -238 -267 -44 -38 -74 -70 -67 -70 34 0 118
37 173 76 146 103 293 315 256 370 -26 39 -125 43 -352 12z"/>
<path d="M5843 678 c-119 -105 -341 -256 -410 -279 -19 -6 -57 -9 -84 -7 -53
5 -53 5 -7 -54 37 -47 60 -54 115 -33 55 21 263 175 320 237 50 55 118 156
110 164 -3 3 -22 -10 -44 -28z"/>
<path d="M11440 687 c0 -3 16 -28 35 -57 19 -28 40 -69 46 -91 7 -21 15 -39
19 -39 14 0 30 27 36 59 7 34 -12 62 -66 101 -26 18 -70 35 -70 27z"/>
<path d="M3660 609 c-110 -13 -304 -50 -314 -59 -24 -22 83 -30 358 -25 159 3
292 8 297 11 18 10 9 44 -16 60 -31 20 -210 28 -325 13z"/>
<path d="M7860 614 c-65 -6 -333 -55 -349 -64 -8 -4 3 -11 32 -18 46 -12 609
-8 628 4 18 10 9 44 -16 60 -19 13 -53 17 -138 19 -62 2 -132 1 -157 -1z"/>
<path d="M6990 581 c0 -5 8 -15 17 -22 9 -8 41 -65 71 -127 30 -62 59 -111 66
-109 6 2 20 20 31 40 l20 37 -24 46 c-25 47 -81 99 -138 128 -37 18 -43 19
-43 7z"/>
<path d="M6740 555 c-19 -14 -51 -43 -72 -65 -21 -22 -55 -48 -74 -58 l-36
-18 32 -27 c42 -36 72 -34 106 6 22 26 94 166 94 183 0 10 -18 2 -50 -21z"/>
</g>
</svg>
